<svg id="Layer_1" data-name="Layer 1" xmlns="http://www.w3.org/2000/svg" viewBox="0 0 30 30"><defs><style>.cls-1{fill:#b42025;}.cls-2{fill:none;}.cls-3{fill:#fff;}</style></defs><title>youtube-color</title><path class="cls-1" d="M15,29A14,14,0,1,0,1,15,14,14,0,0,0,15,29"/><circle class="cls-2" cx="15" cy="15" r="14"/><path id="u" class="cls-3" d="M12,18.07h-.9v-.52a1.33,1.33,0,0,1-.95.59.57.57,0,0,1-.57-.37,1.91,1.91,0,0,1-.1-.7v-3.8h.9v3.89c0,.13.08.18.19.18s.33-.15.52-.42V13.27H12Z"/><path id="o" class="cls-3" d="M8.8,14.84a1.91,1.91,0,0,0-.28-1.14,1.2,1.2,0,0,0-1-.46,1.14,1.14,0,0,0-1,.46,1.91,1.91,0,0,0-.28,1.14v1.71a1.77,1.77,0,0,0,.27,1.1,1.26,1.26,0,0,0,1,.5,1.27,1.27,0,0,0,1-.5,1.79,1.79,0,0,0,.27-1.1Zm-.9,1.8c0,.47-.1.71-.38.71s-.43-.24-.38-.71v-1.9c0-.47.1-.7.38-.7s.43.22.38.7Z"/><path id="y" class="cls-3" d="M5.24,15.46v2.61H4.29V15.46s-1-3.2-1.19-3.8h1l.67,2.5.66-2.5h1Z"/><path class="cls-3" d="M21.27,14a.67.67,0,0,0-.45.22v2.88a.66.66,0,0,0,.45.22c.25,0,.36-.18.36-.66v-2C21.63,14.18,21.51,14,21.27,14Z"/><path class="cls-3" d="M24.81,14.61c0-.44-.11-.57-.4-.57s-.41.12-.41.56v.53h.81Z"/><path class="cls-3" d="M26.76,12.18a3,3,0,0,0-.56-1.4,2,2,0,0,0-1.42-.6c-2-.14-5-.14-5-.14h0s-3,0-5,.14a2,2,0,0,0-1.42.6,3,3,0,0,0-.56,1.4,21.26,21.26,0,0,0-.14,2.29v1.07a21.26,21.26,0,0,0,.14,2.29,3,3,0,0,0,.56,1.4,2.41,2.41,0,0,0,1.56.6c1.13.11,4.82.14,4.82.14s3,0,5-.15a2,2,0,0,0,1.42-.6,3,3,0,0,0,.56-1.4,21.28,21.28,0,0,0,.14-2.29V14.46A21.29,21.29,0,0,0,26.76,12.18ZM15.83,18.07h-.95V12.61h-1v-.9h3v.9h-1Zm3.42,0h-.9v-.52a1.33,1.33,0,0,1-.95.59.57.57,0,0,1-.57-.37,1.91,1.91,0,0,1-.1-.7V13.32h.9v3.85c0,.13.08.18.19.18s.33-.15.52-.42V13.32h.9Zm3.28-1.42a3.65,3.65,0,0,1-.09.95.71.71,0,0,1-.71.54,1.22,1.22,0,0,1-.91-.54v.48H20V11.71h.85v2.08a1.23,1.23,0,0,1,.91-.54.7.7,0,0,1,.69.55,3.33,3.33,0,0,1,.12.95Zm1.89.7A.37.37,0,0,0,24.8,17s0-.25,0-.6h.9v.13a5.41,5.41,0,0,1,0,.56,1.22,1.22,0,0,1-.2.52,1.19,1.19,0,0,1-1,.51,1.23,1.23,0,0,1-1-.49,1.76,1.76,0,0,1-.3-1.09V14.89a1.91,1.91,0,0,1,.29-1.14,1.23,1.23,0,0,1,1-.5,1.2,1.2,0,0,1,1,.5,1.86,1.86,0,0,1,.28,1.12v1H24v.85C24,17.13,24.12,17.35,24.42,17.35Z"/></svg>