<svg xmlns="http://www.w3.org/2000/svg" xml:space="preserve" viewBox="0 0 98.102 80.28" height="80.28" width="98.102" y="0" x="0" id="Layer_2" version="1.1"><g transform="translate(-4.448 -4.86)" id="g3490"><g id="g3492"><g id="g3494"><circle id="circle3496" r="40.14" cy="45" cx="50.049" fill="#0b3d91"/></g><g id="g3498" fill="#fff"><circle id="circle3500" r=".45" cy="12.57" cx="47.679"/><circle id="circle3502" r=".45" cy="13.17" cx="52.299"/><circle id="circle3504" r=".45" cy="21.33" cx="58.359"/><circle id="circle3506" r=".45" cy="63.33" cx="25.119"/><circle id="circle3508" r=".45" cy="66.93" cx="26.289"/><circle id="circle3510" r=".337" cy="63.87" cx="20.709"/><circle id="circle3512" r=".338" cy="70.942" cx="39.009"/><circle id="circle3514" r=".337" cy="64.98" cx="67.711"/><circle id="circle3516" r=".338" cy="55.92" cx="76.052"/><circle id="circle3518" r=".337" cy="23.962" cx="35.169"/><circle id="circle3520" r=".337" cy="17.22" cx="44.349"/><circle id="circle3522" r=".337" cy="16.56" cx="43.352"/><circle id="circle3524" r=".337" cy="15.9" cx="42.452"/><circle id="circle3526" r=".337" cy="25.703" cx="36.609"/><circle id="circle3528" r=".337" cy="8.16" cx="50.131"/><circle id="circle3530" r=".337" cy="17.88" cx="52.352"/><circle id="circle3532" r=".337" cy="15.982" cx="48.849"/><circle id="circle3534" r=".337" cy="18.563" cx="42.849"/><circle id="circle3536" r=".337" cy="73.883" cx="69.309"/><circle id="circle3538" r=".338" cy="65.61" cx="24.549"/><circle id="circle3540" r=".338" cy="69.96" cx="48.009"/><circle id="circle3542" r=".338" cy="65.34" cx="31.531"/><circle id="circle3544" r=".338" cy="70.103" cx="34.449"/><circle id="circle3546" r=".337" cy="67.103" cx="55.929"/><circle id="circle3548" r=".337" cy="60.42" cx="67.771"/><circle id="circle3550" r=".337" cy="64.522" cx="76.749"/><circle id="circle3552" r=".337" cy="66.48" cx="79.809"/><circle id="circle3554" r=".337" cy="61.14" cx="80.312"/><circle id="circle3556" r=".337" cy="53.58" cx="35.671"/><circle id="circle3558" r=".45" cy="61.32" cx="35.799"/><circle id="circle3560" r=".45" cy="67.02" cx="38.499"/><circle id="circle3562" r=".45" cy="61.08" cx="70.839"/><circle id="circle3564" r=".45" cy="60.42" cx="82.479"/><circle id="circle3566" r=".45" cy="57.96" cx="76.719"/><circle id="circle3568" r=".45" cy="58.2" cx="70.839"/><path id="path3570" d="M58.71 12.288l1.119-.107-1.117-.063a.496.496 0 0 0-.426-.413l-.107-1.114-.064 1.123a.494.494 0 0 0-.382.424l-1.144.104 1.152.062a.495.495 0 0 0 .394.38l.104 1.148.061-1.146a.501.501 0 0 0 .41-.398z"/><path id="path3572" d="M39.824 24.746l1.119-.107-1.117-.063a.495.495 0 0 0-.426-.413l-.107-1.114-.063 1.123a.494.494 0 0 0-.383.424l-1.144.104 1.152.062a.495.495 0 0 0 .394.38l.104 1.148.062-1.146a.498.498 0 0 0 .409-.398z"/><path id="path3574" d="M81.659 57.684l1.119-.107-1.117-.063a.495.495 0 0 0-.426-.413l-.107-1.114-.063 1.123a.494.494 0 0 0-.382.424l-1.144.104 1.152.062a.495.495 0 0 0 .394.38l.104 1.148.062-1.146a.5.5 0 0 0 .408-.398z"/><path id="path3576" d="M36.044 74.906l1.119-.107-1.117-.063a.496.496 0 0 0-.426-.413l-.107-1.113-.063 1.122a.494.494 0 0 0-.383.424l-1.144.104 1.152.062a.494.494 0 0 0 .394.38l.104 1.148.062-1.146a.499.499 0 0 0 .409-.398z"/><path id="path3578" d="M78.104 66.506l1.119-.107-1.117-.063a.495.495 0 0 0-.426-.413l-.107-1.114-.063 1.122a.494.494 0 0 0-.382.424l-1.144.104 1.152.062a.495.495 0 0 0 .394.38l.104 1.148.062-1.146a.497.497 0 0 0 .408-.397z"/></g><g id="g3580"><g id="g3582"><path id="path3584" d="M59.568 35.385c-4.667 1.814-9.219 3.433-13.06 4.635-7.805 2.444-29.16 9.06-42.06 17.4l1.08.42c7.86-4.44 12.969-5.835 17.88-7.38 5.34-1.68 22.603-5.72 30.42-7.92a132.174 132.174 0 0 0 9.01-2.9 80.364 80.364 0 0 0-3.27-4.255zm5.702 7.859c-1.13.763-2.077 1.372-2.74 1.756-3.84 2.22-22.561 15-26.82 17.94-4.259 2.94-16.08 14.1-19.56 17.34l-.12 1.319c11.22-10.08 14.74-12.566 19.2-15.959 5.52-4.2 16.939-11.97 20.82-14.46 3.71-2.38 7.056-4.569 10.059-6.572l-.147-.247a94.8 94.8 0 0 0-.692-1.117zM82.809 24.72c-5.466 3.204-14.081 7.071-22.439 10.352a72.812 72.812 0 0 1 3.241 4.286c6.57-2.42 13.779-5.668 19.499-9.599-2.725 2.582-11.734 9.315-17.227 13.068.283.461.557.922.822 1.381 8.322-5.569 13.922-9.668 17.185-12.409 4.5-3.78 14.76-12.24 18.66-23.58-6.841 8.701-14.929 13.68-19.741 16.501z" fill="#fc3d21"/></g></g><path id="path3586" d="M44.884 54.939c-.885-1.114-2.109-2.606-3.028-3.763a69.968 69.968 0 0 1-3.408-4.671l-1.018.255a71.01 71.01 0 0 0 4.177 5.839c1.112 1.4 2.123 2.527 2.641 3.228.105.142.313.456.594.874l.981-.666a20.01 20.01 0 0 1-.939-1.096zm6.46 5.864c-.727-.688-2.49-1.837-4.325-3.561-.405.278-.814.56-1.224.844 1.185 1.67 2.799 3.721 4.063 4.319 1.904.902 2.417-.72 1.486-1.602zm9.623-24.99c-10.492-13.206-23.309-20.461-28.835-16.07-4.292 3.41-2.53 13.376 3.386 23.845l.909-.31c-5.971-10.2-7.605-19.679-3.557-22.896 5.087-4.042 17.37 3.241 27.558 16.064a76.007 76.007 0 0 1 5.533 7.915c6.012 9.95 7.857 18.948 3.703 22.621-1.271 1.124-5.155 1.565-10.243-.725-.071.089.043.33.132.389 4.392 1.766 8.599 2.439 10.723.752 5.104-4.056 1.183-18.379-9.309-31.585z" fill="#fff"/><g id="g3588" fill="#fff"><path id="path3590" d="M15.969 37.38h6.72l5.64 9.57v-7.47c0-.84-1.065-1.935-1.44-2.1h4.65c-.285.075-1.2 1.185-1.2 2.1v10.98c0 .675.975 1.605 1.44 1.965h-6.48l-5.73-9.615v7.56c0 .75.735 1.47 1.5 2.085h-4.95c.705-.3 1.38-1.245 1.44-1.995.06-.75 0-10.425 0-10.845 0-.915-.885-1.665-1.59-2.235z"/><path id="path3592" d="M77.439 52.425h8.94c-.495-.12-1.05-.705-1.35-1.485-.3-.78-5.04-13.56-5.04-13.56H76.59c-.964.694-1.997 1.426-3.1 2.197-.003.028-.006.056-.011.083-.148.9-2.808 10.534-2.97 11.01-.225.66-1.38 1.395-1.845 1.785h4.815c-.48-.54-.87-1.065-.78-1.665.09-.6.36-1.8.36-1.8h4.98c.225.6.393 1.139.48 1.65.105.615-.525 1.305-1.08 1.785zm-3.93-5.355l1.68-5.49 2.22 5.49h-3.9zm-.757-9.142l.742-.548h-1.305c.13.12.345.309.563.548z"/><path id="path3594" d="M38.559 50.79c.09-.6.36-1.8.36-1.8h4.98c.225.6.393 1.139.48 1.65.105.615-.525 1.305-1.08 1.785h7.871l.49-.329c-.305-.27-.586-.675-.771-1.156-.3-.78-5.04-13.56-5.04-13.56h-7.8c.375.345 1.455 1.275 1.29 2.28-.147.9-2.808 10.534-2.97 11.01-.225.66-1.38 1.395-1.845 1.785h4.815c-.48-.54-.87-1.065-.78-1.665zm2.49-9.21l2.22 5.49h-3.9l1.68-5.49z"/><path id="path3596" d="M65.748 44.848a614.857 614.857 0 0 1-4.649 3.065c.732.355 1.315.801 1.371 1.377.104 1.082-2.07 1.605-4.035 1.38a4.856 4.856 0 0 1-1.147-.286l-1.238.796c-.425.273-.941.609-1.53.997v1.553c.39-.765 1.243-1.45 1.905-1.485.285-.015 1.275.9 5.355.675 1.98-.109 5.805-2.22 5.745-4.65-.036-1.436-.786-2.556-1.777-3.422zM54.519 48.6v1.582a325 325 0 0 1 1.066-.709 7.884 7.884 0 0 1-1.066-.873zm9.834-4.745a13.67 13.67 0 0 0-1.134-.596c-1.92-.9-3.93-1.065-4.35-2.28-.296-.857.54-1.65 2.58-1.62 2.04.03 3.93 1.245 4.44 1.68v-3.87c-.15.15-.808.905-1.41.78a26.358 26.358 0 0 0-5.37-.54c-2.58.015-4.8 2.009-4.875 4.53-.105 3.525 2.715 4.485 4.305 5.04.164.057.351.118.554.183 1.525-.992 2.731-1.756 3.437-2.163a38.62 38.62 0 0 0 1.823-1.144z"/></g></g></g></svg>