<svg xmlns="http://www.w3.org/2000/svg" height="46.934" width="46.934" version="1.1" viewBox="0 0 44 44" shape-rendering="crispEdges"><path fill="#fff" d="M.005 22V0h44v44h-44V22z"/><path fill="#e7e7e7" d="M1.205 42.8l-1.2-1.2V2.4l1.2-1.2 1.2-1.2h39.2l1.2 1.2 1.2 1.2v39.2l-1.2 1.2-1.2 1.2h-39.2l-1.2-1.2z"/><path fill="#c8c8c8" d="M1.205 42.8l-1.2-1.2V2.4l1.2-1.2 1.2-1.2h39.2l1.2 1.2 1.2 1.2v39.2l-1.2 1.2-1.2 1.2h-39.2l-1.2-1.2zM36.55 26.545l2.455-2.455v-4.244l-3.026-3.026-3.025-3.025-2.725.645-2.724.645-1.75 2.068-1.75 2.068v5.778l2 2 2 2h6.091l2.454-2.454z"/><path fill="#afafaf" d="M1.576 42.43L.005 40.859V3.145l1.571-1.572L3.147.002h37.714l1.572 1.571 1.571 1.572v37.714l-1.571 1.571-1.572 1.571H3.147L1.576 42.43zm35.356-16.063l2.073-2.635v-4.509l-1.75-2.107-1.75-2.108-3.016-.581-3.016-.582-2.734 2.151-2.734 2.15v6.856l2 2 2 2h6.854l2.073-2.635z"/><path fill="#8a8a8a" d="M1.576 42.43L.005 40.859V3.145l1.571-1.572L3.147.002h37.714l1.572 1.571 1.571 1.572v37.714l-1.571 1.571-1.572 1.571H3.147L1.576 42.43zm35.453-16.186l1.976-2.512v-4.821l-2.455-2.455-2.454-2.454h-4.821l-2.635 2.072-2.635 2.073v7.545l1.75 1.552c2.016 1.787 4.97 2.548 7.524 1.937l1.774-.425 1.976-2.512z"/><path fill="#737373" d="M1.66 42.17L.005 40.341V3.31l1.829-1.655L3.662 0h37.032l1.655 1.829 1.655 1.829V40.69l-1.828 1.655L40.347 44H3.315L1.66 42.17zm33.273-13.634l2.83-1.463.62-1.619c.342-.89.622-2.727.622-4.082v-2.464l-2.455-2.454-2.454-2.455h-5.714l-2.11 1.966c-1.161 1.082-2.4 2.874-2.751 3.984l-.64 2.018 1.311 2.737 1.313 2.736 2.5 1.265c3.174 1.605 3.513 1.597 6.928-.17zM17.69 26.825l2.315-2.175v-5.429l-1.872-2.311-1.87-2.311H8.746l-1.871 2.31-1.872 2.312v4.508l2.073 2.635L9.15 29h6.226l2.314-2.174z"/><path fill="#4d4d4d" d="M1.66 42.17L.005 40.341V3.31l1.829-1.655L3.662 0h37.032l1.655 1.829 1.655 1.829V40.69l-1.828 1.655L40.347 44H3.315L1.66 42.17zm17.366-16.211l.979-1.83v-5.985l-2.635-2.072-2.635-2.073H9.914l-2.455 2.455-2.454 2.454v2.464c0 1.355.292 3.226.65 4.157l.65 1.693 3.03 1.274 3.03 1.274 2.84-.99 2.842-.991.98-1.83zm15.907 2.576l2.83-1.463.62-1.618c.342-.89.622-2.728.622-4.083v-2.464l-2.455-2.454-2.454-2.455h-2.464c-1.355 0-3.192.28-4.083.622l-1.618.62-1.463 2.83c-.805 1.556-1.463 3.561-1.463 4.456v1.626l2.923 2.923L28.85 30h1.626c.895 0 2.9-.659 4.456-1.463z"/><path fill="#2e2e2e" d="M2.227 42.45L.005 40.893V3.12l2.222-1.556L4.45.006h35.554l2 2 2 2v36l-2 2-2 2H4.45l-2.223-1.557zm15.282-14.693l2.616-2.25.093-3.273.093-3.273-2.328-2.477-2.327-2.477H9.634l-2.315 2.174-2.314 2.175v6.742l2.454 2.454 2.455 2.455h4.98l2.615-2.25zm19.041-.205l2.455-2.454v-6.462L36.83 16.32l-2.174-2.314h-6.742l-2.455 2.455-2.454 2.454v1.999c0 1.099.501 3.098 1.114 4.443l1.114 2.445 2.136 1.034c1.175.57 3.169 1.065 4.431 1.102l2.296.068 2.454-2.454z"/><path d="M4.005 43.34c-.825-.312-2.062-1.277-2.75-2.144L.005 39.62V4.384l1.42-1.941L2.843.502h38.322l1.42 1.94 1.419 1.942V39.62l-1.418 1.941-1.417 1.941-17.833.203-17.833.203-1.5-.568zm14.194-16.378l3.04-3.04-.62-3.21-.62-3.21-2.108-1.75-2.107-1.75h-2.808c-1.544 0-3.536.28-4.426.621l-1.619.621-1.463 2.83c-.805 1.556-1.463 3.56-1.463 4.455v1.627l2.923 2.923 2.923 2.923h5.308l3.04-3.04zm18.195.79l2.5-2.25.17-2c.094-1.1.12-2.787.056-3.75l-.115-1.75-2-2-2-2H27.15l-2.073 2.635-2.072 2.635v5.821l2.454 2.455 2.455 2.454h5.98l2.5-2.25z"/></svg>