<svg id="Layer_1" data-name="Layer 1" xmlns="http://www.w3.org/2000/svg" viewBox="0 0 30 30"><defs><style>.cls-1{fill:#d1d3d4;}.cls-2{fill:#fff;}.cls-3{fill:none;}.cls-4{fill:#3766b0;}.cls-5{fill:#ed1f83;}</style></defs><title>flickr-color</title><path class="cls-1" d="M15,29A14,14,0,1,0,1,15,14,14,0,0,0,15,29"/><path class="cls-2" d="M12.32,13a2,2,0,1,0,2,2,2,2,0,0,0-2-2m10-2.54v9.11a2.74,2.74,0,0,1-2.73,2.73H10.44a2.73,2.73,0,0,1-2.73-2.73V10.44a2.73,2.73,0,0,1,2.73-2.73h9.11a2.73,2.73,0,0,1,2.73,2.73M17.68,13a2,2,0,1,0,2,2,2,2,0,0,0-2-2"/><circle class="cls-3" cx="15" cy="15" r="14"/><circle class="cls-4" cx="12.32" cy="15.05" r="2.01"/><circle class="cls-5" cx="17.68" cy="15" r="2.01"/></svg>