<svg id="Layer_1" data-name="Layer 1" xmlns="http://www.w3.org/2000/svg" viewBox="0 0 30 30"><path d="M15 29A14 14 0 1 0 1 15a14 14 0 0 0 14 14" fill="#d1d3d4"/><path d="M12.32 13a2 2 0 1 0 2 2 2 2 0 0 0-2-2m10-2.54v9.11a2.74 2.74 0 0 1-2.73 2.73h-9.15a2.73 2.73 0 0 1-2.73-2.73v-9.13a2.73 2.73 0 0 1 2.73-2.73h9.11a2.73 2.73 0 0 1 2.73 2.73M17.68 13a2 2 0 1 0 2 2 2 2 0 0 0-2-2" fill="#fff"/><circle cx="15" cy="15" r="14" fill="none"/><circle cx="12.32" cy="15.05" r="2.01" fill="#3766b0"/><circle cx="17.68" cy="15" r="2.01" fill="#ed1f83"/></svg>