<svg id="Layer_1" data-name="Layer 1" xmlns="http://www.w3.org/2000/svg" viewBox="0 0 30 30"><defs><style>.cls-3{fill:#fff}</style></defs><path d="M15 29A14 14 0 1 0 1 15a14 14 0 0 0 14 14" fill="#0d71ba"/><circle cx="15" cy="15" r="14" fill="#c13685"/><path class="cls-3" d="M15 9h2.95a4 4 0 0 1 1.35.25 2.41 2.41 0 0 1 1.38 1.38 4 4 0 0 1 .25 1.35v5.9a4 4 0 0 1-.25 1.35 2.41 2.41 0 0 1-1.38 1.38 4 4 0 0 1-1.35.25h-5.9a4 4 0 0 1-1.35-.25 2.41 2.41 0 0 1-1.38-1.31 4 4 0 0 1-.25-1.35v-5.9a4 4 0 0 1 .25-1.35 2.41 2.41 0 0 1 1.38-1.38 4 4 0 0 1 1.35-.25H15m0-1.31h-3a5.35 5.35 0 0 0-1.77.34 3.73 3.73 0 0 0-2.13 2.13A5.35 5.35 0 0 0 7.76 12v6a5.35 5.35 0 0 0 .34 1.77 3.73 3.73 0 0 0 2.13 2.13 5.35 5.35 0 0 0 1.77.34h6a5.35 5.35 0 0 0 1.77-.34 3.73 3.73 0 0 0 2.13-2.13 5.35 5.35 0 0 0 .34-1.77v-6a5.35 5.35 0 0 0-.34-1.77 3.73 3.73 0 0 0-2.13-2.13A5.35 5.35 0 0 0 18 7.76h-3z"/><path class="cls-3" d="M15 11.26A3.74 3.74 0 1 0 18.74 15 3.74 3.74 0 0 0 15 11.26zm0 6.17A2.43 2.43 0 1 1 17.43 15 2.43 2.43 0 0 1 15 17.43z"/><circle class="cls-3" cx="18.89" cy="11.11" r=".87"/></svg>